<svg width="128" height="65" viewBox="0 0 128 65" fill="none" xmlns="http://www.w3.org/2000/svg">
<path d="M3.30859 37.6191H6.93473V55.323H3.30859V37.6191Z" fill="#545363"/>
<path d="M9.03838 49.2572C9.03598 47.9857 9.41249 46.7419 10.1203 45.6834C10.828 44.6249 11.8353 43.7993 13.0145 43.311C14.1936 42.8228 15.4918 42.6938 16.7447 42.9404C17.9975 43.187 19.1488 43.7981 20.0526 44.6965C20.9565 45.5948 21.5724 46.74 21.8224 47.9869C22.0725 49.2339 21.9454 50.5268 21.4572 51.7019C20.969 52.8769 20.1418 53.8813 19.08 54.588C18.0184 55.2949 16.77 55.672 15.4929 55.672C14.6435 55.6817 13.8009 55.5225 13.0142 55.2036C12.2276 54.8848 11.5127 54.4129 10.9116 53.8154C10.3104 53.218 9.83509 52.5071 9.51344 51.7243C9.19178 50.9416 9.03027 50.1029 9.03838 49.2572ZM18.297 49.2572C18.2828 48.7083 18.1063 48.1757 17.7896 47.7262C17.473 47.2765 17.0302 46.93 16.5167 46.7296C16.0032 46.5293 15.4417 46.4843 14.9027 46.6C14.3636 46.7157 13.8708 46.9872 13.4858 47.3804C13.1009 47.7736 12.8409 48.2712 12.7384 48.8108C12.636 49.3503 12.6956 49.908 12.9098 50.414C13.124 50.92 13.4833 51.3519 13.9427 51.6556C14.4023 51.9593 14.9414 52.1215 15.4929 52.1216C15.8702 52.1322 16.2456 52.0647 16.5954 51.9235C16.9452 51.7823 17.2619 51.5705 17.5255 51.3013C17.7889 51.0321 17.9936 50.7116 18.1263 50.3598C18.2592 50.0079 18.3173 49.6326 18.297 49.2572Z" fill="#545363"/>
<path d="M36.5247 43.1913V54.7211C36.5247 58.801 33.3216 60.5221 30.0823 60.5221C28.9433 60.6065 27.8028 60.3771 26.7858 59.8591C25.7689 59.3412 24.9147 58.5545 24.3168 57.5855L27.4353 55.7923C27.6827 56.2888 28.0743 56.7001 28.5591 56.9726C29.044 57.2451 29.5999 57.3664 30.1549 57.3207C30.52 57.3814 30.8942 57.3576 31.2488 57.2514C31.6034 57.1452 31.9286 56.9594 32.1996 56.7082C32.4704 56.4569 32.6798 56.1471 32.8115 55.8026C32.9433 55.4581 32.9937 55.0881 32.959 54.7211V53.6018C32.5328 54.1241 31.9888 54.5389 31.3714 54.8128C30.7541 55.0867 30.0805 55.212 29.4055 55.1785C27.7641 55.1785 26.1901 54.5293 25.0294 53.3737C23.8688 52.2181 23.2168 50.6507 23.2168 49.0164C23.2168 47.3821 23.8688 45.8148 25.0294 44.6592C26.1901 43.5036 27.7641 42.8544 29.4055 42.8544C30.0802 42.8236 30.7527 42.9502 31.3696 43.2238C31.9866 43.4976 32.5308 43.9109 32.959 44.4309V43.2274L36.5247 43.1913ZM32.959 49.0164C32.9832 48.4311 32.8309 47.852 32.5219 47.3534C32.2128 46.8549 31.7611 46.4598 31.2247 46.2191C30.6884 45.9782 30.0919 45.9026 29.5121 46.002C28.9323 46.1013 28.3955 46.3711 27.971 46.7765C27.5463 47.1821 27.2531 47.7048 27.1292 48.2774C27.0052 48.85 27.0562 49.4466 27.2754 49.9902C27.4947 50.5339 27.8722 50.9998 28.3595 51.3281C28.8467 51.6565 29.4215 51.8321 30.0098 51.8326C30.3939 51.8597 30.7793 51.8064 31.1413 51.676C31.5034 51.5456 31.834 51.3413 32.1119 51.076C32.3897 50.8106 32.6087 50.4902 32.7546 50.1355C32.9005 49.7808 32.9701 49.3996 32.959 49.0164Z" fill="#545363"/>
<path d="M38.6155 49.2572C38.6131 47.9857 38.9897 46.7419 39.6974 45.6834C40.4052 44.6249 41.4125 43.7993 42.5916 43.311C43.7707 42.8228 45.0689 42.6938 46.3218 42.9404C47.5746 43.187 48.7259 43.7981 49.6298 44.6965C50.5336 45.5948 51.1495 46.74 51.3997 47.9869C51.6496 49.2339 51.5225 50.5268 51.0343 51.7019C50.5462 52.8769 49.7189 53.8813 48.6573 54.588C47.5955 55.2949 46.3471 55.672 45.0701 55.672C44.2208 55.6817 43.378 55.5225 42.5913 55.2036C41.8046 54.8848 41.0898 54.4129 40.4887 53.8154C39.8876 53.218 39.4122 52.5071 39.0905 51.7243C38.7689 50.9416 38.6073 50.1029 38.6155 49.2572ZM47.8743 49.2572C47.8599 48.7083 47.6834 48.1757 47.3668 47.7262C47.0501 47.2765 46.6073 46.93 46.0938 46.7296C45.5804 46.5293 45.019 46.4843 44.4799 46.6C43.9407 46.7157 43.4479 46.9872 43.0629 47.3804C42.678 47.7736 42.418 48.2712 42.3155 48.8108C42.2131 49.3503 42.2727 49.908 42.4869 50.414C42.7012 50.92 43.0605 51.3519 43.5199 51.6556C43.9794 51.9593 44.5185 52.1215 45.0701 52.1216C45.4454 52.1287 45.8181 52.0589 46.1651 51.9161C46.512 51.7734 46.8257 51.561 47.0866 51.2922C47.3474 51.0236 47.5498 50.7041 47.6813 50.354C47.8126 50.0038 47.8701 49.6304 47.8501 49.2572H47.8743Z" fill="#545363"/>
<path d="M53.2051 39.9419C53.2051 39.5087 53.3341 39.0851 53.5758 38.725C53.8176 38.3648 54.1611 38.084 54.563 37.9182C54.9651 37.7524 55.4073 37.7091 55.8341 37.7936C56.2608 37.8781 56.6528 38.0867 56.9605 38.393C57.2682 38.6993 57.4776 39.0896 57.5625 39.5145C57.6474 39.9394 57.6038 40.3799 57.4374 40.7801C57.2709 41.1803 56.9889 41.5225 56.6272 41.7631C56.2653 42.0038 55.8401 42.1322 55.4049 42.1322C54.8225 42.1292 54.2648 41.8973 53.8529 41.4872C53.441 41.0772 53.2083 40.5219 53.2051 39.9419ZM53.5797 43.1914H57.2058V55.3229H53.5797V43.1914Z" fill="#545363"/>
<path d="M73.0153 49.2572C73.0592 50.0591 72.9435 50.8618 72.6747 51.619C72.4058 52.3761 71.9893 53.0729 71.4489 53.6691C70.9085 54.2653 70.255 54.7493 69.526 55.093C68.7971 55.4367 68.0071 55.6335 67.2014 55.672C66.5251 55.7043 65.8498 55.5885 65.2233 55.3327C64.5968 55.077 64.0342 54.6875 63.5753 54.1917V60.2093H59.9492V43.1914H63.5753V44.3347C64.0342 43.839 64.5968 43.4495 65.2233 43.1937C65.8498 42.9379 66.5251 42.8222 67.2014 42.8544C68.006 42.8929 68.795 43.0893 69.5231 43.4323C70.2513 43.7754 70.9042 44.2582 71.4444 44.8531C71.9847 45.448 72.4014 46.1433 72.671 46.8991C72.9407 47.6548 73.0577 48.4563 73.0153 49.2572ZM69.3892 49.2572C69.3749 48.6923 69.1944 48.144 68.8702 47.6802C68.546 47.2165 68.0923 46.8575 67.5653 46.648C67.0384 46.4383 66.4611 46.3872 65.9053 46.501C65.3494 46.6147 64.8392 46.8884 64.4379 47.2879C64.0366 47.6875 63.762 48.1954 63.6477 48.7489C63.5335 49.3024 63.5848 49.8771 63.7952 50.4018C64.0058 50.9265 64.3662 51.3783 64.832 51.701C65.2978 52.0239 65.8485 52.2036 66.4158 52.2178C66.8117 52.243 67.2084 52.1833 67.5793 52.0431C67.9501 51.9028 68.2865 51.6851 68.5659 51.4047C68.8452 51.1242 69.0612 50.7875 69.199 50.4171C69.3367 50.0467 69.3934 49.6512 69.365 49.2572H69.3892Z" fill="#545363"/>
<path d="M84.3044 51.6884C84.3044 54.4806 81.887 55.672 79.2278 55.672C78.1655 55.7657 77.0994 55.5406 76.1667 55.0258C75.2341 54.511 74.4773 53.7301 73.9941 52.7836L77.161 50.9903C77.2895 51.4281 77.5647 51.8089 77.9406 52.0694C78.3167 52.33 78.7708 52.4546 79.2278 52.4225C80.1102 52.4225 80.5453 52.1457 80.5453 51.6643C80.5453 50.3283 74.5018 51.0385 74.5018 46.8502C74.5018 44.2024 76.75 42.8665 79.3366 42.8665C80.2911 42.8377 81.236 43.0634 82.0734 43.5205C82.9107 43.9776 83.61 44.6494 84.099 45.4661L80.9201 47.127C80.7797 46.8092 80.5495 46.5387 80.2577 46.3486C79.9659 46.1584 79.625 46.0567 79.2762 46.0558C78.6477 46.0558 78.2609 46.2966 78.2609 46.7419C78.3093 48.1259 84.3044 47.1992 84.3044 51.6884Z" fill="#545363"/>
<path d="M97.6485 43.1914V55.323H94.0223V54.1917C93.6005 54.6944 93.0652 55.0905 92.4602 55.3478C91.8552 55.6051 91.1976 55.7161 90.5412 55.672C88.1238 55.672 85.9844 53.9269 85.9844 50.6413V43.1914H89.6105V50.1117C89.5786 50.4067 89.6132 50.7049 89.7115 50.9849C89.8098 51.2649 89.9694 51.5196 90.1789 51.7305C90.3883 51.9414 90.6424 52.1032 90.9225 52.2041C91.2026 52.3052 91.5018 52.3426 91.7983 52.3142C93.1279 52.3142 94.0586 51.5439 94.0586 49.8229V43.1914H97.6485Z" fill="#545363"/>
<path d="M118.608 47.885V55.3228H114.982V48.198C114.982 46.9945 114.39 46.2001 113.229 46.2001C112.069 46.2001 111.32 47.0547 111.32 48.4868V55.3228H107.693V48.198C107.693 46.9945 107.113 46.2001 105.941 46.2001C104.768 46.2001 104.043 47.0547 104.043 48.4868V55.3228H100.417V43.1914H104.043V44.3106C104.422 43.8163 104.919 43.4241 105.489 43.1698C106.059 42.9154 106.684 42.807 107.307 42.8544C107.932 42.824 108.555 42.9557 109.114 43.2361C109.673 43.5166 110.15 43.9366 110.498 44.455C110.902 43.913 111.438 43.4818 112.055 43.2019C112.672 42.9221 113.351 42.8024 114.027 42.8544C116.783 42.8544 118.608 44.8522 118.608 47.885Z" fill="#545363"/>
<path d="M121.702 43.1191C123.197 43.1191 124.409 41.912 124.409 40.4231C124.409 38.9343 123.197 37.7273 121.702 37.7273C120.206 37.7273 118.994 38.9343 118.994 40.4231C118.994 41.912 120.206 43.1191 121.702 43.1191Z" fill="#545363"/>
<path d="M44.3445 28.4363C51.3471 28.4363 57.0238 22.7838 57.0238 15.8112C57.0238 8.83868 51.3471 3.18628 44.3445 3.18628C37.3418 3.18628 31.665 8.83868 31.665 15.8112C31.665 22.7838 37.3418 28.4363 44.3445 28.4363Z" fill="#545363"/>
<path d="M72.6892 28.4363C79.6918 28.4363 85.3685 22.7838 85.3685 15.8112C85.3685 8.83868 79.6918 3.18628 72.6892 3.18628C65.6866 3.18628 60.0098 8.83868 60.0098 15.8112C60.0098 22.7838 65.6866 28.4363 72.6892 28.4363Z" fill="#545363"/>
<path d="M28.6796 3.18628H3.33301V28.4242H28.6796V3.18628Z" fill="#545363"/>
</svg>
